<?xml version="1.0" encoding="UTF-8" standalone="no"?>
<svg
   xmlns:dc="http://purl.org/dc/elements/1.1/"
   xmlns:cc="http://creativecommons.org/ns#"
   xmlns:rdf="http://www.w3.org/1999/02/22-rdf-syntax-ns#"
   xmlns:svg="http://www.w3.org/2000/svg"
   xmlns="http://www.w3.org/2000/svg"
   viewBox="0 0 666.66669 666.66669"
   height="666.66669"
   width="666.66669"
   xml:space="preserve"
   id="svg2"
   version="1.1"><metadata
     id="metadata8"><rdf:RDF><cc:Work
         rdf:about=""><dc:format>image/svg+xml</dc:format><dc:type
           rdf:resource="http://purl.org/dc/dcmitype/StillImage" /></cc:Work></rdf:RDF></metadata><defs
     id="defs6" /><g
     transform="matrix(1.3333333,0,0,-1.3333333,0,666.66667)"
     id="g10"><g
       transform="scale(0.1)"
       id="g12"><path
         id="path14"
         style="fill:#fff;fill-opacity:1;fill-rule:nonzero;stroke:none"
         d="M 0,0 H 5000 V 5000 H 0 Z" /><g
         transform="scale(10)"
         id="g16"><text
           id="text20"
           style="font-variant:normal;font-weight:normal;font-size:59.32279968px;font-family:Arial;-inkscape-font-specification:LuckiestGuy-Regular;writing-mode:lr-tb;fill:#244b93;fill-opacity:1;fill-rule:nonzero;stroke:none"
           transform="matrix(1,0,0,-1,76.2742,402.924)"><tspan
             id="tspan18"
             y="0"
             x="0 37.539093 56.366192 92.109398 120.669 159.68559 198.03619 236.35748 284.43948 314.04199">VIDEOGAMES</tspan></text>
</g><g
         transform="scale(10)"
         id="g22"><text
           id="text26"
           style="font-variant:normal;font-weight:500;font-size:20.42840004px;font-family:Arial;-inkscape-font-specification:Montserrat-Medium;writing-mode:lr-tb;fill:#040606;fill-opacity:1;fill-rule:nonzero;stroke:none"
           transform="matrix(1,0,0,-1,73.3563,460.984)"><tspan
             id="tspan24"
             y="0"
             x="0 21.592798 41.407303 64.124092 83.938599 103.03919 115.50109 133.4366 152.25108 163.87509 187.16321 206.26376 217.88676 238.56055 256.88474 277.10834 296.20895 308.66983 331.38663">BENEFITS OF PLAYING</tspan></text>
</g><g
         transform="scale(10)"
         id="g28"><text
           id="text32"
           style="font-variant:normal;font-weight:normal;font-size:59.32279968px;font-family:Arial;-inkscape-font-specification:LuckiestGuy-Regular;writing-mode:lr-tb;fill:#d32157;fill-opacity:1;fill-rule:nonzero;stroke:none"
           transform="matrix(1,0,0,-1,74.6367,405.654)"><tspan
             id="tspan30"
             y="0"
             x="0 37.539093 56.366192 92.109398 120.669 159.68559 198.03619 236.35748 284.43948 314.04199">VIDEOGAMES</tspan></text>
</g><path
         id="path34"
         style="fill:#efd4a9;fill-opacity:1;fill-rule:nonzero;stroke:none"
         d="m 1773.31,2154.51 c -64.9,134.55 -107.98,278.34 -122.8,418.52 -37.49,354.58 96.79,736.28 360.3,978.83 309.87,285.21 774.01,386.27 1118.49,101.19 102.24,-84.61 181.42,-208.31 198.32,-348.05 38.74,-320.22 -209.58,-594.33 -161.56,-921.44 24,-163.52 55.21,-331.17 -0.69,-493.96 -67.88,-197.66 -258.32,-327.76 -442.28,-360.27 -176.87,-31.26 -359.97,18.01 -513.03,116.11 -182.35,116.87 -338.43,305.23 -436.75,509.07" /><path
         id="path36"
         style="fill:#efd4a9;fill-opacity:1;fill-rule:nonzero;stroke:none"
         d="m 1285.52,857.34 c 73.26,57.59 196.72,70.289 293.35,77.922 346.83,27.386 695.52,44.179 1044.18,39.078 174.36,-2.551 348.65,-10.578 521.99,-25.789 127.76,-11.211 259.68,-19.66 379.88,-58.571 106.46,-34.46 283.21,-135.511 189.72,-239.98 -28.31,-31.629 -72.52,-51.898 -117.28,-67.539 -216.19,-75.539 -466.14,-76.621 -698.53,-76.77 -260.12,-0.16 -520.31,-4.062 -780.4,0.219 -242.84,3.988 -494.22,22.422 -712.48,113.949 -84.75,35.551 -215.34,112.95 -155.8,200.153 9.69,14.187 21.65,26.547 35.37,37.328" /><path
         id="path38"
         style="fill:#0e121e;fill-opacity:1;fill-rule:nonzero;stroke:none"
         d="m 1972.95,1308.76 h -36.68 v 1795.37 h 36.68 V 1308.76" /><path
         id="path40"
         style="fill:#244b93;fill-opacity:1;fill-rule:nonzero;stroke:none"
         d="m 2276.79,3013.2 c 0,-13.63 -30.22,-24.29 -77.48,-31.89 -28.64,-4.73 -63.59,-8.34 -101.87,-10.75 -190.65,-12.52 -465,1.67 -465,42.64 l 205.39,466.39 c 0,17.89 76.84,25.58 142.37,22.99 14.18,-0.65 27.9,-1.68 40.13,-3.25 29.75,-3.71 51.07,-10.29 51.07,-19.74 l 205.39,-466.39" /><path
         id="path42"
         style="fill:#223766;fill-opacity:1;fill-rule:nonzero;stroke:none"
         d="m 2097.44,2970.56 -117.24,532.02 c 14.18,-0.65 27.9,-1.68 40.13,-3.25 l 178.98,-518.02 c -28.64,-4.73 -63.59,-8.34 -101.87,-10.75 v 0" /><path
         id="path44"
         style="fill:#fbc944;fill-opacity:1;fill-rule:nonzero;stroke:none"
         d="M 3526.28,1110.81 C 3503.25,989.91 3452.91,869.672 3360.15,788.832 3211.42,659.32 2993.96,658.16 2796.86,663.961 c -204.21,5.961 -408.43,11.93 -612.64,18.051 -165.79,4.797 -336.05,10.597 -489.25,74.527 -153.21,63.77 -288.02,199.582 -301.11,365.041 -2.32,30.3 -0.49,60.45 5.14,89.76 22.52,118.76 105.33,226.08 211.5,287.7 132.33,77.01 293.82,90.6 445.19,68.07 95.41,-14.09 187.99,-41.91 278.59,-74.04 75.02,-26.5 136.31,-65.58 214.31,-37.1 177.06,64.76 337.38,131.01 528.18,148.73 110.97,10.43 231.55,5.64 322.64,-57.3 4.14,-2.81 8.28,-5.8 12.26,-8.95 123.05,-95.06 143.59,-274.94 114.61,-427.64" /><path
         id="path46"
         style="fill:#e39134;fill-opacity:1;fill-rule:nonzero;stroke:none"
         d="m 2897.88,662.199 c -33.96,0 -67.78,0.781 -101.02,1.762 -204.21,5.961 -408.43,11.93 -612.64,18.051 -165.79,4.797 -336.05,10.597 -489.25,74.527 -153.21,63.77 -288.02,199.582 -301.11,365.041 -0.66,8.64 -0.98,17.27 -0.98,25.87 0.01,21.56 2.09,42.94 6.12,63.89 157.46,-114.62 338.15,-195.87 526.65,-247.129 34.99,-88.031 60.32,-145.391 60.32,-145.391 l 218.62,46.039 -7.76,46.121 c 99.77,-12.64 200.45,-18.308 301.19,-18.308 102.58,0 205.23,5.867 307.24,16.25 l -7.4,-44.063 218.45,-46.039 c 0,0 23.65,53.512 56.79,136.461 34.05,9.789 67.45,21.571 99.89,35.949 108.16,48.03 205.88,128.03 254.57,235.85 46.22,102.68 40.41,231.87 -28.15,320.32 4.14,-2.81 8.28,-5.8 12.26,-8.95 91.45,-70.65 126.28,-188.14 126.24,-306.5 -0.01,-40.91 -4.19,-81.92 -11.63,-121.14 C 3503.25,989.91 3452.91,869.672 3360.15,788.832 3236.5,681.16 3065.35,662.199 2897.88,662.199" /><path
         id="path48"
         style="fill:#f1494d;fill-opacity:1;fill-rule:nonzero;stroke:none"
         d="m 2448.04,2939.06 c 0,0 -131.73,104.98 -161.55,74.7 -29.82,-30.29 54.94,-85.81 54.94,-85.81 0,0 -88.49,44.42 -115.83,0 -27.34,-44.41 107.28,-153.11 107.28,-153.11 l 329.64,11.8 c 0,0 148.37,121.12 116.06,150.4 -32.3,29.28 -139.18,-23 -139.18,-23 0,0 91.96,67.42 60.89,90.63 -31.07,23.22 -161.54,-67.63 -161.54,-67.63 l -90.71,2.02" /><path
         id="path50"
         style="fill:#0e121e;fill-opacity:1;fill-rule:nonzero;stroke:none"
         d="m 2197.64,3243.32 c 0,0 -52.19,184.27 -8.03,225.92 0,0 11.97,193.46 145.54,151.99 0,0 183.77,140.21 263.47,10.41 0,0 194.28,15.86 166.71,-131.17 0,0 76.24,-14.58 33.83,-257.15 l -278.69,-121.8 -316.06,121.8" /><path
         id="path52"
         style="fill:#f7987c;fill-opacity:1;fill-rule:nonzero;stroke:none"
         d="m 2762.65,3417.12 c -176.35,61.45 -352.09,60.74 -527.24,0 -4.85,-56.63 -9.7,-113.51 -5.88,-170.22 3.82,-56.7 16.7,-113.68 45.21,-162.84 29.1,-50.2 73.25,-90.37 102.43,-140.53 13.09,-22.49 28.2,-34.88 37.1,-51.43 10.55,-19.6 12.9,-45.81 0.02,-112.36 0,0 -125.29,-75.98 -125.29,-170.92 0,-94.95 210.03,-125.33 210.03,-125.33 0,0 210.04,30.38 210.04,125.33 0,94.94 -125.75,177.82 -125.75,177.82 -5.62,60.65 -5.02,88.77 0.39,105.46 6.86,21.2 21.19,23.94 37.18,51.43 29.18,50.16 73.33,90.33 102.45,140.53 28.5,49.16 41.38,106.14 45.2,162.84 3.82,56.71 -1.03,113.59 -5.89,170.22" /><path
         id="path54"
         style="fill:#c16953;fill-opacity:1;fill-rule:nonzero;stroke:none"
         d="m 2490.07,2916.6 c -43.31,0 -85.86,16.24 -118.1,45.38 -2.55,2.31 -2.75,6.23 -0.45,8.78 2.29,2.55 6.24,2.76 8.76,0.44 31.85,-28.78 76.51,-44.45 119.31,-41.9 3.96,0.44 6.37,-2.41 6.56,-5.83 0.21,-3.43 -2.39,-6.36 -5.82,-6.57 -3.41,-0.2 -6.84,-0.3 -10.26,-0.3" /><path
         id="path56"
         style="fill:#0e121e;fill-opacity:1;fill-rule:nonzero;stroke:none"
         d="m 2430.06,3262.85 c 0,-18.55 -8.26,-33.59 -18.46,-33.59 -10.2,0 -18.46,15.04 -18.46,33.59 0,18.56 8.26,33.6 18.46,33.6 10.2,0 18.46,-15.04 18.46,-33.6" /><path
         id="path58"
         style="fill:#ffffff;fill-opacity:1;fill-rule:nonzero;stroke:none"
         d="m 2413.43,3276.1 c 0,-6.02 -2.69,-10.91 -6,-10.91 -3.31,0 -5.99,4.89 -5.99,10.91 0,6.02 2.68,10.9 5.99,10.9 3.31,0 6,-4.88 6,-10.9" /><path
         id="path60"
         style="fill:#0e121e;fill-opacity:1;fill-rule:nonzero;stroke:none"
         d="m 2609.49,3262.85 c 0,-18.55 -8.27,-33.59 -18.47,-33.59 -10.19,0 -18.47,15.04 -18.47,33.59 0,18.56 8.28,33.6 18.47,33.6 10.2,0 18.47,-15.04 18.47,-33.6" /><path
         id="path62"
         style="fill:#ffffff;fill-opacity:1;fill-rule:nonzero;stroke:none"
         d="m 2592.85,3276.1 c 0,-6.02 -2.69,-10.91 -6,-10.91 -3.31,0 -5.99,4.89 -5.99,10.91 0,6.02 2.68,10.9 5.99,10.9 3.31,0 6,-4.88 6,-10.9" /><path
         id="path64"
         style="fill:#c16953;fill-opacity:1;fill-rule:nonzero;stroke:none"
         d="m 2497.37,3165.15 c -2.43,0 -4.74,1.44 -5.74,3.83 -1.31,3.17 0.19,6.8 3.36,8.11 7.02,2.92 11.65,6.04 14.58,9.85 3.13,4.1 4.04,9.49 2.18,13.07 -1.78,3.45 -6.55,5.35 -10.32,4.03 -3.17,-1.18 -6.76,0.52 -7.94,3.76 -1.15,3.23 0.53,6.78 3.77,7.94 9.41,3.37 20.89,-1.12 25.52,-10 4.11,-7.97 2.8,-18.31 -3.36,-26.36 -5.66,-7.37 -13.93,-11.38 -19.67,-13.75 l -2.38,-0.48" /><path
         id="path66"
         style="fill:#0e121e;fill-opacity:1;fill-rule:nonzero;stroke:none"
         d="m 2428.19,3308.02 c -2.13,3.58 -6.13,8.16 -10.11,11.3 -4.09,3.31 -8.74,5.84 -13.73,7.32 -4.99,1.4 -10.31,2.25 -15.76,1.56 -5.47,-0.34 -10.93,-2.03 -16.37,-3.95 l -0.46,-0.17 c -3.23,-1.13 -6.77,0.56 -7.92,3.79 -1.07,3.02 0.38,6.33 3.22,7.68 6.12,2.87 12.54,5.54 19.57,6.7 6.94,1.51 14.39,1.23 21.56,-0.12 7.21,-1.43 14.13,-4.38 20.2,-8.39 6.19,-4.2 11.25,-8.57 16.27,-15.29 3.23,-4.32 2.35,-10.45 -1.97,-13.68 -4.32,-3.23 -10.44,-2.34 -13.67,1.97 l -0.57,0.84 -0.26,0.44" /><path
         id="path68"
         style="fill:#0e121e;fill-opacity:1;fill-rule:nonzero;stroke:none"
         d="m 2557.83,3318.45 c 5.03,6.72 10.08,11.09 16.27,15.29 6.07,4.01 13,6.96 20.2,8.39 7.18,1.35 14.63,1.63 21.56,0.12 7.03,-1.16 13.44,-3.83 19.58,-6.7 3.09,-1.46 4.43,-5.15 2.97,-8.25 -1.36,-2.9 -4.68,-4.26 -7.65,-3.23 l -0.49,0.18 c -5.44,1.92 -10.9,3.61 -16.37,3.95 -5.45,0.69 -10.77,-0.16 -15.76,-1.56 -4.99,-1.48 -9.64,-4.01 -13.73,-7.32 -3.97,-3.14 -7.98,-7.72 -10.11,-11.3 l -0.26,-0.43 c -2.76,-4.63 -8.76,-6.15 -13.39,-3.38 -4.64,2.76 -6.15,8.76 -3.39,13.39 l 0.57,0.85" /><path
         id="path70"
         style="fill:#c16953;fill-opacity:1;fill-rule:nonzero;stroke:none"
         d="m 2501.72,3093.27 -0.81,0.06 c -34.76,4.6 -67.4,20.91 -91.91,45.95 -2.42,2.46 -2.37,6.39 0.07,8.79 2.46,2.4 6.4,2.35 8.79,-0.1 22.59,-23.06 52.66,-38.09 84.67,-42.33 3.41,-0.45 5.81,-3.57 5.35,-6.98 -0.42,-3.12 -3.08,-5.39 -6.16,-5.39" /><path
         id="path72"
         style="fill:#f57588;fill-opacity:1;fill-rule:nonzero;stroke:none"
         d="m 2426.82,3208.49 c -3.22,2.96 -7.19,4.83 -11.66,4.83 h -25 c -4.23,0 -8.66,-1.84 -11.65,-4.83 -2.86,-2.86 -5.01,-7.55 -4.83,-11.65 0.19,-4.26 1.59,-8.69 4.83,-11.66 3.22,-2.96 7.18,-4.83 11.65,-4.83 h 25 c 4.23,0 8.67,1.84 11.66,4.83 2.86,2.86 5.01,7.55 4.83,11.66 -0.2,4.26 -1.59,8.68 -4.83,11.65" /><path
         id="path74"
         style="fill:#f57588;fill-opacity:1;fill-rule:nonzero;stroke:none"
         d="m 2575.67,3208.49 c 3.23,2.96 7.19,4.83 11.66,4.83 h 25 c 4.23,0 8.66,-1.84 11.65,-4.83 2.86,-2.86 5.01,-7.55 4.83,-11.65 -0.19,-4.26 -1.59,-8.69 -4.83,-11.66 -3.22,-2.96 -7.19,-4.83 -11.65,-4.83 h -25 c -4.23,0 -8.67,1.84 -11.66,4.83 -2.85,2.86 -5.01,7.55 -4.82,11.66 0.19,4.26 1.59,8.68 4.82,11.65" /><path
         id="path76"
         style="fill:#0e121e;fill-opacity:1;fill-rule:nonzero;stroke:none"
         d="m 2257.24,3222.16 c 0,0 53.17,52.21 56.02,169.94 0,0 95.37,-41.77 123.17,11.4 0,0 112.8,-49.1 150.42,0 0,0 42.57,-44.63 91.95,-17.09 0,0 1.33,-127.54 53.11,-164.25 l 43.81,32.49 -3.76,174.48 c 0,0 -297.79,104.44 -551.99,-12.34 v -169 l 37.27,-25.63" /><path
         id="path78"
         style="fill:#f7987c;fill-opacity:1;fill-rule:nonzero;stroke:none"
         d="m 2257.22,3240.57 c 45.98,-28.74 66.58,-78.73 46,-111.64 -20.57,-32.92 -74.53,-36.3 -120.51,-7.56 -45.98,28.75 -66.58,78.73 -46,111.65 20.57,32.91 74.53,36.29 120.51,7.55" /><path
         id="path80"
         style="fill:#c16953;fill-opacity:1;fill-rule:nonzero;stroke:none"
         d="m 2248.4,3125.26 c -2.99,0 -5.63,2.16 -6.13,5.21 -0.55,3.38 1.73,6.57 5.13,7.13 4.62,0.76 9.18,3.85 12.19,8.27 2.87,4.22 4.51,9.67 4.74,15.78 0.62,15.9 -8.49,32.6 -24.34,44.66 -14.51,11.04 -32.59,17.33 -51.39,23.32 -3.26,1.04 -5.06,4.53 -4.02,7.8 1.03,3.27 4.54,5.03 7.81,4.04 19.86,-6.34 39.03,-13.03 55.12,-25.28 19.07,-14.5 30.01,-35.07 29.24,-55.01 -0.32,-8.44 -2.72,-16.15 -6.9,-22.3 -4.95,-7.29 -12.41,-12.22 -20.45,-13.54 l -1,-0.08" /><path
         id="path82"
         style="fill:#c16953;fill-opacity:1;fill-rule:nonzero;stroke:none"
         d="m 2201.57,3153.07 -2.12,0.37 c -3.23,1.17 -4.88,4.74 -3.71,7.95 8.65,23.78 30.19,42.62 54.89,48 3.43,0.71 6.67,-1.4 7.39,-4.73 0.73,-3.36 -1.39,-6.67 -4.74,-7.4 -20.63,-4.5 -38.65,-20.24 -45.87,-40.1 -0.92,-2.52 -3.3,-4.09 -5.84,-4.09" /><path
         id="path84"
         style="fill:#f7987c;fill-opacity:1;fill-rule:nonzero;stroke:none"
         d="m 2745.27,3240.57 c -45.98,-28.74 -66.58,-78.73 -46.01,-111.64 20.58,-32.92 74.54,-36.3 120.52,-7.56 45.99,28.75 66.58,78.73 46.01,111.65 -20.58,32.91 -74.53,36.29 -120.52,7.55" /><path
         id="path86"
         style="fill:#c16953;fill-opacity:1;fill-rule:nonzero;stroke:none"
         d="m 2754.09,3125.26 -1.01,0.08 c -8.03,1.33 -15.49,6.26 -20.44,13.54 -4.19,6.15 -6.58,13.86 -6.9,22.29 -0.76,19.95 10.16,40.52 29.26,55.02 16.07,12.25 35.24,18.94 55.09,25.28 3.26,1.01 6.77,-0.75 7.82,-4.04 1.04,-3.27 -0.76,-6.76 -4.03,-7.8 -18.79,-5.99 -36.87,-12.28 -51.36,-23.32 -15.87,-12.06 -24.97,-28.76 -24.36,-44.66 0.23,-6.11 1.88,-11.56 4.74,-15.78 3,-4.42 7.57,-7.51 12.19,-8.27 3.39,-0.56 5.68,-3.75 5.13,-7.14 -0.51,-3.04 -3.14,-5.2 -6.13,-5.2" /><path
         id="path88"
         style="fill:#c16953;fill-opacity:1;fill-rule:nonzero;stroke:none"
         d="m 2800.91,3153.07 c -2.53,0 -4.92,1.57 -5.84,4.09 -7.21,19.86 -25.23,35.6 -45.86,40.1 -3.35,0.73 -5.47,4.04 -4.75,7.4 0.73,3.33 3.98,5.44 7.39,4.73 24.7,-5.38 46.25,-24.22 54.9,-48 1.17,-3.21 -0.48,-6.78 -3.72,-7.95 l -2.12,-0.37" /><path
         id="path90"
         style="fill:#d32157;fill-opacity:1;fill-rule:nonzero;stroke:none"
         d="M 2957.68,1748.46 H 2044.6 c 0,0 2.49,61.78 6.96,155.03 0.33,5.3 0.49,10.6 0.82,16.07 3.15,63.42 7.13,139.62 11.6,220.11 1.66,25.84 3.14,52.17 4.8,78.5 15.9,258.21 38.42,532.15 63.76,560.48 27.17,30.81 111.8,62.6 181.2,84.63 54.99,17.39 100.53,28.82 100.53,28.82 27.83,-66.41 86.96,-58.63 86.96,-58.63 0,0 54.66,-7.78 82.48,58.63 0,0 42.23,-10.43 94.73,-26.5 l 1,-0.33 c 71.87,-22.03 162.3,-54.82 190.47,-86.62 24.34,-27.66 46.37,-286.2 62.27,-537.29 1.99,-33.95 4.14,-67.74 5.96,-100.7 1.33,-21.7 2.49,-43.22 3.64,-64.09 2.49,-44.23 4.64,-86.29 6.63,-124.72 5.96,-119.74 9.27,-203.39 9.27,-203.39" /><path
         id="path92"
         style="fill:#f1494d;fill-opacity:1;fill-rule:nonzero;stroke:none"
         d="m 2780.03,1987.35 c -102.54,15.19 -117.73,115.83 -117.73,115.83 -107.39,22.78 -214.79,22.78 -322.18,0 0,0 -15.19,-100.64 -117.73,-115.83 l -18.99,-140.52 c 201.44,-18.99 399.97,-18.99 595.62,0 l -18.99,140.52" /><path
         id="path94"
         style="fill:#ca9081;fill-opacity:1;fill-rule:nonzero;stroke:none"
         d="m 2952.14,1874.63 c -1.09,23.38 -2.34,49.32 -3.73,77.22 -1.99,38.4 -4.13,80.43 -6.62,124.63 0.02,0.03 0.05,0.06 0.07,0.09 2.48,-44.23 4.64,-86.29 6.62,-124.72 1.39,-27.89 2.64,-53.82 3.73,-77.19 -0.02,-0.01 -0.05,-0.02 -0.07,-0.03" /><path
         id="path96"
         style="fill:#ab1842;fill-opacity:1;fill-rule:nonzero;stroke:none"
         d="m 2488.75,1748.49 c -93.01,0 -182.41,10.48 -268.09,31.77 0,0 -72.27,59.31 -170.4,94.39 0.44,9.23 0.89,18.85 1.37,28.84 0.33,5.3 0.5,10.6 0.83,16.07 44.87,-31.96 97.49,-51.09 152.34,-62.36 l -1.4,-10.37 c 100.72,-9.49 200.71,-14.24 299.98,-14.24 99.27,0 197.82,4.75 295.64,14.24 l -13.25,98.05 c 59,34.93 112.38,79 156.02,131.6 2.49,-44.2 4.63,-86.23 6.62,-124.63 1.39,-27.9 2.64,-53.84 3.73,-77.22 -98.1,-35.09 -170.35,-94.37 -170.35,-94.37 -101.28,-21.06 -199,-31.77 -293.04,-31.77" /><path
         id="path98"
         style="fill:#f03938;fill-opacity:1;fill-rule:nonzero;stroke:none"
         d="m 2503.38,1832.59 c -99.27,0 -199.26,4.75 -299.98,14.24 l 1.4,10.37 c 34.43,-7.08 69.73,-11.06 104.54,-13.17 22.23,-1.39 44.54,-2.11 66.84,-2.11 97.49,0 195.01,13.79 286.93,46 42.53,14.92 83.81,33.96 122.66,56.96 l 13.25,-98.05 c -97.82,-9.49 -196.37,-14.24 -295.64,-14.24" /><path
         id="path100"
         style="fill:#f1494d;fill-opacity:1;fill-rule:nonzero;stroke:none"
         d="m 2679.5,2865.22 c 0,0 -44.05,-98.52 -176.88,-98.52 -133,0 -188.81,96.53 -188.81,96.53 54.98,17.39 100.53,28.82 100.53,28.82 39.67,-76.7 141.55,-66.36 169.37,0.05 0,0 42.29,-10.49 94.8,-26.55 l 0.99,-0.33" /><path
         id="path102"
         style="fill:#ffffff;fill-opacity:1;fill-rule:nonzero;stroke:none"
         d="m 2423.1,2500.34 c -0.94,0 -1.88,0.21 -2.77,0.64 -3.07,1.53 -4.32,5.26 -2.79,8.33 11.96,24.12 16.2,56.68 12.58,96.78 -1.52,16.7 -4.18,33.57 -6.73,49.88 -2.67,17 -5.42,34.56 -6.96,52.18 -3.65,42.42 1.27,77.15 14.63,103.22 1.56,3.07 5.32,4.26 8.36,2.71 3.06,-1.57 4.25,-5.31 2.7,-8.37 -12.27,-23.97 -16.76,-56.44 -13.3,-96.5 1.49,-17.18 4.21,-34.53 6.85,-51.31 2.58,-16.52 5.27,-33.59 6.81,-50.7 3.84,-42.41 -0.81,-77.2 -13.82,-103.42 -1.08,-2.18 -3.28,-3.44 -5.56,-3.44" /><path
         id="path104"
         style="fill:#ffffff;fill-opacity:1;fill-rule:nonzero;stroke:none"
         d="m 2571.78,2500.34 c -2.27,0 -4.47,1.26 -5.55,3.44 -13.01,26.22 -17.65,61.02 -13.8,103.42 1.53,17.11 4.22,34.19 6.8,50.71 2.63,16.77 5.36,34.12 6.83,51.3 3.48,40.06 -0.99,72.53 -13.28,96.5 -1.55,3.06 -0.35,6.8 2.7,8.37 3.03,1.55 6.8,0.36 8.36,-2.71 13.36,-26.08 18.29,-60.82 14.61,-103.22 -1.52,-17.62 -4.28,-35.18 -6.95,-52.17 -2.56,-16.32 -5.21,-33.19 -6.72,-49.89 -3.62,-40.09 0.61,-72.66 12.57,-96.78 1.52,-3.07 0.27,-6.8 -2.79,-8.33 -0.89,-0.43 -1.84,-0.64 -2.78,-0.64" /><path
         id="path106"
         style="fill:#0e121e;fill-opacity:1;fill-rule:nonzero;stroke:none"
         d="m 2707.69,2278.84 c -5.53,33.15 -26.26,41.87 -80.16,41.87 -53.91,0 -58.06,-40.12 -63.59,-33.14 -5.53,6.98 -76.7,8.72 -76.7,8.72 0,0 -71.18,-1.74 -76.71,-8.72 -5.53,-6.98 -9.68,33.14 -63.58,33.14 -53.91,0 -74.64,-8.72 -80.17,-41.87 -5.52,-33.14 15.21,-274.29 81.55,-274.29 66.34,0 63.58,145.21 63.58,145.21 50.22,-13.95 100.44,-13.95 150.65,0 0,0 -2.76,-145.21 63.58,-145.21 66.35,0 87.08,241.15 81.55,274.29" /><path
         id="path108"
         style="fill:#ffffff;fill-opacity:1;fill-rule:nonzero;stroke:none"
         d="m 2513.26,2278.45 c -17.31,3.05 -34.66,2.97 -51.94,-0.27 -4.24,-0.79 -7.04,-6.14 -5.75,-10.14 1.47,-4.53 5.59,-6.6 10.13,-5.75 7.03,1.32 13.72,1.98 21.58,2.02 7.58,0.04 15.06,-0.6 21.59,-1.75 4.24,-0.75 9.09,1.14 10.14,5.76 0.92,4.01 -1.21,9.33 -5.75,10.13" /><path
         id="path110"
         style="fill:#f1494d;fill-opacity:1;fill-rule:nonzero;stroke:none"
         d="m 2914.6,2483.49 241.7,-177.61 -413.1,-104.33 9.49,-173.81 c 0,0 597.49,31.49 664.6,200.75 67.12,169.27 -575.83,572.17 -575.83,572.17 -16.35,-91.06 12.49,-213.85 73.14,-317.17" /><path
         id="path112"
         style="fill:#f7987c;fill-opacity:1;fill-rule:nonzero;stroke:none"
         d="m 2644.04,2054.67 c 0,0 147.48,-76.25 188.7,27.84 20.89,52.75 -25.98,103.74 -62.84,135.2 -22.33,19.05 -46.75,35.71 -72.13,50.42 -20.72,11.99 -47.3,33.33 -72.9,28.75 -19.53,-3.49 -41.03,-18.21 -58.06,-27.74 -14.68,-8.23 -96.67,-49.95 -82.73,-75.31 15.31,-27.88 52.86,4.88 52.86,4.88 0,0 -23.46,-26.05 -11.71,-47.67 11.75,-21.61 66.51,-113.35 80.19,-120.51 13.67,-7.15 38.62,24.14 38.62,24.14" /><path
         id="path114"
         style="fill:#f1494d;fill-opacity:1;fill-rule:nonzero;stroke:none"
         d="m 2089.75,2486.88 -243.6,-181 413.1,-104.33 -9.49,-173.81 c 0,0 -597.49,31.49 -664.6,200.75 -67.11,169.27 564.74,565.12 564.74,565.12 10.29,-95.55 3.15,-189.78 -60.15,-306.73" /><path
         id="path116"
         style="fill:#f7987c;fill-opacity:1;fill-rule:nonzero;stroke:none"
         d="m 2358.41,2054.67 c 0,0 -147.48,-76.25 -188.7,27.84 -20.9,52.75 25.98,103.74 62.84,135.2 22.32,19.05 46.75,35.71 72.13,50.42 20.72,11.99 47.31,33.33 72.9,28.75 19.53,-3.49 41.03,-18.21 58.06,-27.74 14.68,-8.23 96.67,-49.95 82.74,-75.31 -15.32,-27.88 -52.87,4.88 -52.87,4.88 0,0 23.46,-26.05 11.71,-47.67 -11.75,-21.61 -66.52,-113.35 -80.19,-120.51 -13.67,-7.15 -38.62,24.14 -38.62,24.14" /><path
         id="path118"
         style="fill:#244b93;fill-opacity:1;fill-rule:nonzero;stroke:none"
         d="m 3016.31,818.82 -218.45,46.039 96.56,574.881 c 0,0 -151.72,-64.26 -393.19,-64.26 -86.62,0 -161.82,8.28 -222.43,18.88 h -0.17 c -108.32,19.05 -170.76,45.38 -170.76,45.38 l 96.72,-574.881 -218.62,-46.039 c 0,0 -409.26,926.83 -209.19,1044.09 200.08,117.43 443.88,-82.65 443.88,-82.65 172.31,-42.82 359.67,-41.89 561.13,0 0,0 243.8,200.08 443.88,82.65 C 3425.74,1745.65 3016.31,818.82 3016.31,818.82" /><path
         id="path120"
         style="fill:#223766;fill-opacity:1;fill-rule:nonzero;stroke:none"
         d="m 2278.63,1394.36 c -108.32,19.05 -170.76,45.38 -170.76,45.38 v 0 0 l -38.26,215.65 c 2.32,-11.27 43.89,-190.47 209.02,-261.03" /><path
         id="path122"
         style="fill:#a08d36;fill-opacity:1;fill-rule:nonzero;stroke:none"
         d="m 2723.82,1394.36 c 0.05,0.02 0.09,0.04 0.13,0.06 27.19,4.76 51.47,9.99 72.59,15.15 -21.16,-5.17 -45.49,-10.42 -72.72,-15.21 m 89.85,19.55 c 52.15,13.72 80.75,25.83 80.75,25.83 l -0.01,-0.07 c -2.49,-1.04 -30.9,-12.66 -80.74,-25.76" /><path
         id="path124"
         style="fill:#223766;fill-opacity:1;fill-rule:nonzero;stroke:none"
         d="m 2723.95,1394.42 c 165.03,70.59 206.57,249.7 208.89,260.97 l -38.25,-215.65 c 0,0 -0.06,-0.02 -0.18,-0.07 l 0.01,0.07 c 0,0 -28.6,-12.11 -80.75,-25.83 -5.46,-1.43 -11.16,-2.88 -17.13,-4.34 -21.12,-5.16 -45.4,-10.39 -72.59,-15.15" /><path
         id="path126"
         style="fill:#d32157;fill-opacity:1;fill-rule:nonzero;stroke:none"
         d="m 2238.38,689.289 c 0,0 -350.62,-284.699 -421.18,-219.609 -8.45,7.789 -11.27,20.039 -9.77,35.441 8.44,95.899 178.54,313.699 178.54,313.699 l 218.62,46.039 25.34,-131.339 8.45,-44.231" /><path
         id="path128"
         style="fill:#244b93;fill-opacity:1;fill-rule:nonzero;stroke:none"
         d="m 2238.38,689.289 c 0,0 -350.62,-284.699 -421.18,-219.609 -8.45,7.789 -11.27,20.039 -9.77,35.441 17.22,-9.269 46.87,-16.723 89.27,2.82 64.42,29.809 287.03,191.629 333.23,225.579 l 8.45,-44.231" /><path
         id="path130"
         style="fill:#ffffff;fill-opacity:1;fill-rule:nonzero;stroke:none"
         d="m 1972.74,744.762 c -1.2,1.847 -2.82,3.117 -4.93,3.789 -4.01,1.258 -8.02,2.531 -12.03,3.801 -1.09,0.339 -2.19,0.386 -3.28,0.148 -1.1,-0.051 -2.12,-0.379 -3.07,-0.98 -1.7,-1.008 -3.33,-2.969 -3.78,-4.93 -0.48,-2.11 -0.38,-4.469 0.83,-6.352 1.19,-1.84 2.81,-3.109 4.92,-3.789 4.01,-1.269 8.02,-2.527 12.03,-3.797 1.09,-0.343 2.19,-0.39 3.29,-0.14 1.09,0.047 2.11,0.379 3.06,0.968 1.71,1.012 3.34,2.961 3.79,4.93 0.47,2.11 0.37,4.481 -0.83,6.352" /><path
         id="path132"
         style="fill:#ffffff;fill-opacity:1;fill-rule:nonzero;stroke:none"
         d="m 1960.66,717.371 c -1.16,1.789 -2.81,3.231 -4.93,3.777 -4.84,1.274 -9.7,2.543 -14.55,3.813 -2.09,0.539 -4.48,0.258 -6.35,-0.832 -1.71,-1 -3.34,-2.957 -3.79,-4.918 -0.48,-2.109 -0.37,-4.492 0.84,-6.352 1.15,-1.8 2.81,-3.238 4.92,-3.789 4.85,-1.269 9.71,-2.539 14.55,-3.808 2.09,-0.551 4.49,-0.262 6.36,0.828 1.71,1.012 3.34,2.961 3.78,4.922 0.48,2.117 0.38,4.48 -0.83,6.359" /><path
         id="path134"
         style="fill:#ffffff;fill-opacity:1;fill-rule:nonzero;stroke:none"
         d="m 1946.11,690.801 c -1.14,1.769 -2.82,3.289 -4.92,3.789 -5.09,1.191 -10.17,2.379 -15.25,3.57 -2.13,0.5 -4.43,0.281 -6.35,-0.828 -1.71,-1 -3.34,-2.973 -3.78,-4.934 -0.49,-2.109 -0.38,-4.468 0.83,-6.347 1.13,-1.77 2.82,-3.289 4.92,-3.789 5.08,-1.192 10.17,-2.383 15.25,-3.571 2.13,-0.5 4.43,-0.281 6.35,0.84 1.7,0.989 3.34,2.957 3.78,4.918 0.48,2.11 0.38,4.473 -0.83,6.352" /><path
         id="path136"
         style="fill:#d32157;fill-opacity:1;fill-rule:nonzero;stroke:none"
         d="m 2764.07,689.289 c 0,0 350.62,-284.699 421.18,-219.609 8.45,7.789 11.27,20.039 9.78,35.441 -8.45,95.899 -178.55,313.699 -178.55,313.699 l -218.62,46.039 -25.34,-131.339 -8.45,-44.231" /><path
         id="path138"
         style="fill:#244b93;fill-opacity:1;fill-rule:nonzero;stroke:none"
         d="m 2764.07,689.289 c 0,0 350.62,-284.699 421.18,-219.609 8.45,7.789 11.27,20.039 9.78,35.441 -17.23,-9.269 -46.88,-16.723 -89.27,2.82 -64.44,29.809 -287.03,191.629 -333.24,225.579 l -8.45,-44.231" /><path
         id="path140"
         style="fill:#ffffff;fill-opacity:1;fill-rule:nonzero;stroke:none"
         d="m 3029.71,744.762 c 1.19,1.847 2.82,3.117 4.93,3.789 4.01,1.258 8.02,2.531 12.03,3.801 1.09,0.339 2.19,0.386 3.29,0.148 1.09,-0.051 2.12,-0.379 3.05,-0.98 1.71,-1.008 3.34,-2.969 3.79,-4.93 0.48,-2.11 0.38,-4.469 -0.83,-6.352 -1.19,-1.84 -2.81,-3.109 -4.92,-3.789 -4.01,-1.269 -8.02,-2.527 -12.03,-3.797 -1.09,-0.343 -2.19,-0.39 -3.28,-0.14 -1.1,0.047 -2.12,0.379 -3.07,0.968 -1.71,1.012 -3.34,2.961 -3.79,4.93 -0.48,2.11 -0.37,4.481 0.83,6.352" /><path
         id="path142"
         style="fill:#ffffff;fill-opacity:1;fill-rule:nonzero;stroke:none"
         d="m 3041.79,717.371 c 1.16,1.789 2.82,3.231 4.93,3.777 4.85,1.274 9.7,2.543 14.56,3.813 2.08,0.539 4.47,0.258 6.34,-0.832 1.71,-1 3.34,-2.957 3.79,-4.918 0.48,-2.109 0.37,-4.492 -0.84,-6.352 -1.15,-1.8 -2.81,-3.238 -4.92,-3.789 -4.85,-1.269 -9.7,-2.539 -14.55,-3.808 -2.09,-0.551 -4.48,-0.262 -6.36,0.828 -1.71,1.012 -3.34,2.961 -3.78,4.922 -0.49,2.117 -0.38,4.48 0.83,6.359" /><path
         id="path144"
         style="fill:#ffffff;fill-opacity:1;fill-rule:nonzero;stroke:none"
         d="m 3056.34,690.801 c 1.14,1.769 2.83,3.289 4.93,3.789 5.07,1.191 10.15,2.379 15.24,3.57 2.13,0.5 4.43,0.281 6.35,-0.828 1.71,-1 3.34,-2.973 3.79,-4.934 0.48,-2.109 0.37,-4.468 -0.83,-6.347 -1.15,-1.77 -2.83,-3.289 -4.93,-3.789 -5.08,-1.192 -10.16,-2.383 -15.24,-3.571 -2.14,-0.5 -4.44,-0.281 -6.36,0.84 -1.71,0.989 -3.34,2.957 -3.79,4.918 -0.47,2.11 -0.37,4.473 0.84,6.352" /><g
         transform="scale(10)"
         id="g146"><text
           id="text152"
           style="font-variant:normal;font-weight:normal;font-size:11px;font-family:Arial;-inkscape-font-specification:Montserrat-Regular;writing-mode:lr-tb;fill:#040606;fill-opacity:1;fill-rule:nonzero;stroke:none"
           transform="matrix(1,0,0,-1,11.4668,256.262)"><tspan
             id="tspan148"
             y="0"
             x="0 8.9429998 16.301399 22.780399 30.678398 37.443398 40.325397 46.6394 54.591545 61.950542 69.452492">HELPS TREAT</tspan><tspan
             id="tspan150"
             y="13.2"
             x="1.19805 10.28405 17.642448 25.43054 33.383541 40.742538 47.507542 54.272541 57.59454 66.82354">DEPRESSION</tspan></text>
</g><path
         id="path154"
         style="fill:#fbc944;fill-opacity:1;fill-rule:nonzero;stroke:none"
         d="m 1221.02,2529.49 c 0,-77.37 -62.73,-140.11 -140.11,-140.11 -77.37,0 -140.097,62.74 -140.097,140.11 0,77.38 62.727,140.11 140.097,140.11 77.38,0 140.11,-62.73 140.11,-140.11" /><path
         id="path156"
         style="fill:#d32157;fill-opacity:1;fill-rule:nonzero;stroke:none"
         d="m 1038.98,2570.81 c 0,-12.24 -5.12,-22.16 -11.44,-22.16 -6.31,0 -11.44,9.92 -11.44,22.16 0,12.23 5.13,22.16 11.44,22.16 6.32,0 11.44,-9.93 11.44,-22.16" /><path
         id="path158"
         style="fill:#d32157;fill-opacity:1;fill-rule:nonzero;stroke:none"
         d="m 1122.85,2570.81 c 0,-12.24 5.13,-22.16 11.44,-22.16 6.32,0 11.43,9.92 11.43,22.16 0,12.23 -5.11,22.16 -11.43,22.16 -6.31,0 -11.44,-9.93 -11.44,-22.16" /><path
         id="path160"
         style="fill:#d32157;fill-opacity:1;fill-rule:nonzero;stroke:none"
         d="m 1149.06,2466.23 c -1.4,0 -2.81,0.48 -3.98,1.43 -72.73,60.34 -125.45,3.11 -127.66,0.66 -2.29,-2.55 -6.23,-2.8 -8.79,-0.51 -2.57,2.29 -2.8,6.23 -0.52,8.8 0.62,0.7 62.77,68.8 144.93,0.65 2.66,-2.18 3.02,-6.12 0.82,-8.78 -1.23,-1.48 -3.01,-2.25 -4.8,-2.25" /><g
         transform="scale(10)"
         id="g162"><text
           id="text168"
           style="font-variant:normal;font-weight:normal;font-size:11px;font-family:Arial;-inkscape-font-specification:Montserrat-Regular;writing-mode:lr-tb;fill:#040606;fill-opacity:1;fill-rule:nonzero;stroke:none"
           transform="matrix(1,0,0,-1,41.2844,165.538)"><tspan
             id="tspan164"
             y="0"
             x="0 7.9530001 15.311396 24.397396 33.109394 41.018394 48.377396">REDUCES</tspan><tspan
             id="tspan166"
             y="13.2"
             x="13.3316 19.986864 26.300346 34.253345 41.61174 48.377369">STRESS</tspan></text>
</g><path
         id="path170"
         style="fill:#d32157;fill-opacity:1;fill-rule:nonzero;stroke:none"
         d="m 1105.83,1552.36 c -13.02,-8.5 -30.79,-8.33 -44.36,-0.75 -13.58,7.59 -22.83,21.88 -25.61,37.18 -2.78,15.3 0.58,31.38 7.98,45.05 -9.59,17.25 -6.38,41.13 5.77,56.69 12.13,15.57 33.93,22.88 53,17.77 10.99,16.78 28.23,29.3 47.77,33.82 19.55,4.51 42.07,-1.8 53.91,-17.99 19.66,4.7 42.71,-6.66 54.43,-23.14 13.42,-0.71 27.08,-8.15 35.49,-18.65 8.4,-10.51 12.07,-24.66 9.82,-37.91 13.09,-2.45 23.07,-16.37 24.7,-29.59 1.63,-13.21 -3.92,-26.61 -12.66,-36.66 1.87,-4.99 2.32,-11.73 3.16,-17 1.45,-9.28 -0.5,-19.04 -5.43,-27.04 -4.93,-7.99 -12.78,-14.13 -21.72,-16.99 4.76,-10.89 6.75,-23.92 6.59,-35.8 -0.03,-1.7 -0.14,-3.52 -1.14,-4.91 -2.33,-3.23 -7.4,-1.94 -10.88,-0.02 -9.63,5.34 -17.79,13.27 -23.41,22.74 -8.55,-5.75 -19.76,-7.44 -29.51,-4.12 -9.75,3.32 -17.77,11.37 -21.03,21.15 -4.22,-3.64 -11.66,-5.35 -16.95,-3.6 -5.29,1.77 -9.49,6.45 -10.69,11.9 -13.34,-9.61 -31.5,-12.36 -47.1,-7.16 -15.6,5.21 -27.23,19.33 -32.13,35.03" /><path
         id="path172"
         style="fill:#fbc944;fill-opacity:1;fill-rule:nonzero;stroke:none"
         d="m 1191.2,1695.6 -32.1,-75.66 h 22.85 l -9.52,-58.86 33.29,73.38 -23.77,-0.76 9.25,61.9" /><g
         transform="scale(10)"
         id="g174"><text
           id="text180"
           style="font-variant:normal;font-weight:normal;font-size:11px;font-family:Arial;-inkscape-font-specification:Montserrat-Regular;writing-mode:lr-tb;fill:#040606;fill-opacity:1;fill-rule:nonzero;stroke:none"
           transform="matrix(1,0,0,-1,41.0422,346.985)"><tspan
             id="tspan176"
             y="0"
             x="0 3.322 13.827 21.614111 29.567112 38.565166 46.077866 53.436863">IMPROVES</tspan><tspan
             id="tspan178"
             y="13.2"
             x="-4.1476598 3.7613399 11.71434 19.072735 26.57469 32.888691 36.122089 43.634789 46.956791 53.215576">CREATIVITY</tspan></text>
</g><path
         id="path182"
         style="fill:#d32157;fill-opacity:1;fill-rule:nonzero;stroke:none"
         d="m 1196.61,3497.14 c 1.66,9.23 1.08,18.8 3.34,27.91 2.26,9.1 8.47,18.23 17.72,19.79 9.34,1.56 18.43,-5.37 22.5,-13.92 4.06,-8.55 4.26,-18.35 4.39,-27.82 15.02,-8.27 32.9,5.78 41.39,20.68 9.65,16.92 16.4,38.11 37.13,42.73 9.43,2.1 19.52,-0.54 27.17,-6.44 20,-15.45 19.42,-43.15 7.35,-62.51 -9.27,-14.87 -24.4,-25.31 -40.48,-32.26 -12.51,-5.4 -28.12,-11.67 -28.4,-25.89 -0.16,-7.74 4.96,-14.68 11.8,-18.29 12.34,-6.52 25.92,-3.96 39.09,-2.86 13.03,1.09 26.61,0.63 38.5,-4.81 18.03,-8.25 31.45,-29.97 15.12,-50.86 -4.55,-5.82 -10.8,-10.29 -17.74,-12.84 -18.19,-6.68 -37.72,-2.14 -55.71,3.87 -9.66,3.24 -19.29,6.91 -29.1,9.57 -22.07,5.96 -22.17,-17.81 -25.46,-31.52 -0.76,-3.19 -2.04,-6.67 -5.01,-8.05 -11.24,-5.23 -19.94,15.21 -27.37,20.14 -12.91,8.56 -29.76,-1.41 -37.57,-12.42 -11.54,-16.24 -14.17,-37.81 -31.66,-50.51 -7.05,-5.12 -16.55,-6.85 -24.43,-3.13 -17.1,8.08 -13.54,30.44 -7.76,46.95 5.4,15.4 10.24,35.16 -2.08,45.87 -8.57,7.46 -23.25,7.68 -28.3,17.86 -5.67,11.43 5.82,23.48 9.66,35.66 5.93,18.75 -6.92,37.63 -17.45,54.25 -10.87,17.16 -19.39,41.27 -4.57,55.99 7.56,7.51 19.23,9.31 29.39,6.08 33.65,-10.69 26.75,-39.95 41.43,-57.45 14.52,-17.3 33.66,-4.98 37.11,14.23" /><path
         id="path184"
         style="fill:#fbc944;fill-opacity:1;fill-rule:nonzero;stroke:none"
         d="m 1104.23,3531.35 c 8.22,0.53 16.67,-2.13 22.89,-7.53 4.05,-3.53 7.23,-8.27 8.86,-13.4 0.58,-1.83 1.91,-3.85 1.68,-5.84 -0.3,-2.66 -2.52,-3.38 -4.71,-1.93 -2.88,1.89 -4.14,5.29 -5.81,8.13 -3.7,6.24 -10.46,10.58 -17.68,11.33 -3.19,0.33 -10,0.03 -11.29,4.18 -1.17,3.77 2.93,4.85 6.06,5.06" /><path
         id="path186"
         style="fill:#fbc944;fill-opacity:1;fill-rule:nonzero;stroke:none"
         d="m 1323.58,3557.83 c 8.22,0.54 16.67,-2.13 22.89,-7.53 4.05,-3.53 7.23,-8.27 8.86,-13.4 0.58,-1.83 1.9,-3.85 1.68,-5.84 -0.29,-2.66 -2.52,-3.38 -4.71,-1.93 -2.87,1.9 -4.13,5.3 -5.81,8.13 -3.7,6.25 -10.46,10.58 -17.68,11.34 -3.19,0.33 -10,0.02 -11.29,4.18 -1.17,3.76 2.94,4.85 6.06,5.05" /><path
         id="path188"
         style="fill:#d32157;fill-opacity:1;fill-rule:nonzero;stroke:none"
         d="m 1498.47,1594 c -6.28,0 -12.13,3.97 -14.23,10.24 -171.64,514.02 -149.34,982.2 -100.41,1284.43 53.06,327.66 148.22,536.99 149.17,539.07 3.45,7.53 12.36,10.81 19.9,7.35 7.52,-3.46 10.82,-12.36 7.36,-19.89 -0.95,-2.04 -94.66,-208.45 -146.98,-532.39 -48.23,-298.66 -70.15,-761.28 99.42,-1269.05 2.63,-7.86 -1.62,-16.36 -9.47,-18.99 -1.58,-0.53 -3.18,-0.77 -4.76,-0.77" /><path
         id="path190"
         style="fill:#d32157;fill-opacity:1;fill-rule:nonzero;stroke:none"
         d="m 1585.61,3421.46 c 0,-21.52 -17.45,-38.98 -38.98,-38.98 -21.53,0 -38.98,17.46 -38.98,38.98 0,21.53 17.45,38.99 38.98,38.99 21.53,0 38.98,-17.46 38.98,-38.99" /><path
         id="path192"
         style="fill:#d32157;fill-opacity:1;fill-rule:nonzero;stroke:none"
         d="m 1537.45,1609 c 0,-21.52 -17.45,-38.98 -38.98,-38.98 -21.53,0 -38.98,17.46 -38.98,38.98 0,21.53 17.45,38.99 38.98,38.99 21.53,0 38.98,-17.46 38.98,-38.99" /><path
         id="path194"
         style="fill:#d32157;fill-opacity:1;fill-rule:nonzero;stroke:none"
         d="m 1402.13,2515.23 c 0,-21.53 -17.46,-38.97 -38.98,-38.97 -21.53,0 -38.99,17.44 -38.99,38.97 0,21.53 17.46,38.99 38.99,38.99 21.52,0 38.98,-17.46 38.98,-38.99" /><g
         transform="scale(10)"
         id="g196"><text
           id="text204"
           style="font-variant:normal;font-weight:normal;font-size:11px;font-family:Arial;-inkscape-font-specification:Montserrat-Regular;writing-mode:lr-tb;fill:#040606;fill-opacity:1;fill-rule:nonzero;stroke:none"
           transform="matrix(1,0,0,-1,401.131,165.538)"><tspan
             id="tspan198"
             y="0"
             x="0 8.9423656 16.301365 22.780365 30.678366 37.443367 40.325367 46.529453">HELPS TO</tspan><tspan
             id="tspan200"
             y="13.2"
             x="0 5.9287219 13.816405 21.636723 28.995722 31.877722 40.171722 47.530136 53.953949 60.267952 67.626366">TAKE BETTER</tspan><tspan
             id="tspan202"
             y="26.4"
             x="0 9.0860004 16.400469 24.309469 27.631468 34.396469 37.718468 46.947468 55.889835">DECISIONS</tspan></text>
</g><path
         id="path206"
         style="fill:#fbc944;fill-opacity:1;fill-rule:nonzero;stroke:none"
         d="m 3925.46,1658.05 c 0,66.37 -57.54,119.29 -125.44,111.62 -50.63,-5.71 -91.94,-46.4 -98.35,-96.94 -5.58,-44.01 14.36,-83.73 47,-106.6 16.64,-11.65 26.44,-30.76 26.44,-51.07 v -4.27 h 75.97 v 4.26 c 0,20.46 10.07,39.53 26.79,51.32 28.77,20.33 47.59,53.77 47.59,91.68" /><path
         id="path208"
         style="fill:#d32157;fill-opacity:1;fill-rule:nonzero;stroke:none"
         d="m 3775.11,1502.61 h 75.97 c 0,0 -2.22,-26.75 -37.99,-26.75 -35.77,0 -37.98,26.75 -37.98,26.75" /><g
         transform="scale(10)"
         id="g210"><text
           id="text216"
           style="font-variant:normal;font-weight:normal;font-size:11px;font-family:Arial;-inkscape-font-specification:Montserrat-Regular;writing-mode:lr-tb;fill:#040606;fill-opacity:1;fill-rule:nonzero;stroke:none"
           transform="matrix(1,0,0,-1,391.466,346.985)"><tspan
             id="tspan212"
             y="0"
             x="0 7.3590002 16.30139 25.24439 33.13139 42.073753 49.982754 57.341755">ENHANCES</tspan><tspan
             id="tspan214"
             y="13.2"
             x="0 10.505 17.86339 28.368389 37.597389 45.440186">MEMORY</tspan></text>
</g><path
         id="path218"
         style="fill:#fbc944;fill-opacity:1;fill-rule:nonzero;stroke:none"
         d="m 3797.29,3445.61 c 10.26,-2.39 18.42,-8.16 23.83,-15.7 3.95,-5.52 12.19,-5.11 14.92,1.1 l 8.48,19.22 c 8.14,18.49 -0.24,40.09 -18.72,48.24 l -15.92,7.02 c -5.6,2.47 -7.19,10.01 -2.65,14.1 5.85,5.28 10.28,12.41 12.27,21.03 3.62,15.65 -3.12,32.66 -16.45,41.62 -21.33,14.34 -49.27,5.53 -59.15,-16.87 -2.22,-5.05 -3.32,-10.32 -3.4,-15.51 -0.08,-6.48 -6.28,-11.02 -12.2,-8.4 l -15.91,7.01 c -18.5,8.15 -40.09,-0.23 -48.24,-18.72 l -7.37,-16.68 c -2.49,-5.67 -10.13,-7.19 -14.21,-2.53 -5.2,5.95 -12.31,10.48 -20.96,12.54 -15.8,3.77 -33.06,-2.99 -42.06,-16.51 -14.21,-21.31 -5.38,-49.15 16.96,-58.99 5.21,-2.31 10.65,-3.39 16.02,-3.38 6.53,0.01 11.15,-6.22 8.52,-12.2 l -6.9,-15.66 c -8.16,-18.49 0.22,-40.08 18.72,-48.24 l 113.41,-50 c 18.48,-8.15 40.08,0.23 48.24,18.72 l 7.9,17.92 c 2.77,6.3 -2.46,12.86 -9.3,12.08 -6.78,-0.77 -13.84,0.2 -20.55,3.16 -22.53,9.94 -31.32,38.17 -16.59,59.56 9.02,13.1 25.82,19.67 41.31,16.07" /><g
         transform="scale(10)"
         id="g220"><text
           id="text226"
           style="font-variant:normal;font-weight:normal;font-size:11px;font-family:Arial;-inkscape-font-specification:Montserrat-Regular;writing-mode:lr-tb;fill:#040606;fill-opacity:1;fill-rule:nonzero;stroke:none"
           transform="matrix(1,0,0,-1,408.83,256.262)"><tspan
             id="tspan222"
             y="0"
             x="0 3.322 13.827 21.614111 29.567112 38.565155 46.077873 53.436871">IMPROVES</tspan><tspan
             id="tspan224"
             y="13.2"
             x="0 7.5019417 13.925756 20.239756 27.598169 36.541172 42.854633 46.176632 55.405632">ATTENTION</tspan></text>
</g><path
         id="path228"
         style="fill:#d32157;fill-opacity:1;fill-rule:nonzero;stroke:none"
         d="m 3883.78,2656.43 c -96.28,0 -142.75,-109.33 -142.75,-109.33 0,0 46.47,-109.33 142.75,-109.33 96.27,0 142.74,109.33 142.74,109.33 0,0 -46.47,109.33 -142.74,109.33" /><path
         id="path230"
         style="fill:#fbc944;fill-opacity:1;fill-rule:nonzero;stroke:none"
         d="m 3937.35,2547.1 c 0,-33.76 -23.98,-61.13 -53.57,-61.13 -29.59,0 -53.58,27.37 -53.58,61.13 0,33.76 23.99,61.12 53.58,61.12 29.59,0 53.57,-27.36 53.57,-61.12" /><path
         id="path232"
         style="fill:#d32157;fill-opacity:1;fill-rule:nonzero;stroke:none"
         d="m 3471.08,1594 c 6.28,0 12.13,3.97 14.23,10.24 171.64,514.02 149.34,982.2 100.41,1284.43 -53.06,327.66 -148.21,536.99 -149.17,539.07 -3.46,7.53 -12.35,10.81 -19.89,7.35 -7.52,-3.46 -10.82,-12.36 -7.37,-19.89 0.95,-2.04 94.66,-208.45 146.98,-532.39 48.24,-298.66 70.15,-761.28 -99.43,-1269.05 -2.62,-7.86 1.63,-16.36 9.48,-18.99 1.59,-0.53 3.19,-0.77 4.76,-0.77" /><path
         id="path234"
         style="fill:#d32157;fill-opacity:1;fill-rule:nonzero;stroke:none"
         d="m 3383.94,3421.46 c 0,-21.52 17.45,-38.98 38.99,-38.98 21.52,0 38.97,17.46 38.97,38.98 0,21.53 -17.45,38.99 -38.97,38.99 -21.54,0 -38.99,-17.46 -38.99,-38.99" /><path
         id="path236"
         style="fill:#d32157;fill-opacity:1;fill-rule:nonzero;stroke:none"
         d="m 3432.1,1609 c 0,-21.52 17.45,-38.98 38.97,-38.98 21.53,0 38.98,17.46 38.98,38.98 0,21.53 -17.45,38.99 -38.98,38.99 -21.52,0 -38.97,-17.46 -38.97,-38.99" /><path
         id="path238"
         style="fill:#d32157;fill-opacity:1;fill-rule:nonzero;stroke:none"
         d="m 3567.42,2515.23 c 0,-21.53 17.46,-38.97 38.98,-38.97 21.54,0 38.99,17.44 38.99,38.97 0,21.53 -17.45,38.99 -38.99,38.99 -21.52,0 -38.98,-17.46 -38.98,-38.99" /></g></g></svg>
